<svg id="svg" xmlns="http://www.w3.org/2000/svg" xmlns:xlink="http://www.w3.org/1999/xlink" width="500" height="502.61780104712045" viewBox="0, 0, 500,502.61780104712045">
    <g id="svgg">
        <path id="path0" d="M190.298 72.411 C 159.711 112.243,134.647 144.935,134.599 145.061 C 134.549 145.189,153.447 145.288,177.886 145.288 C 216.277 145.288,221.243 145.333,221.110 145.679 C 220.133 148.225,220.149 146.551,220.220 243.325 L 220.288 336.257 220.999 338.835 C 229.012 367.876,270.711 366.830,276.701 337.439 C 277.490 333.565,277.522 151.325,276.734 147.579 L 276.252 145.288 316.922 145.288 C 339.290 145.288,357.591 145.200,357.590 145.092 C 357.588 144.789,246.493 0.184,246.183 0.080 C 246.034 0.030,220.885 32.579,190.298 72.411 M0.000 356.152 L 0.000 502.618 250.000 502.618 L 500.000 502.618 500.000 356.152 L 500.000 209.686 419.241 209.686 L 338.482 209.686 338.482 235.733 L 338.482 261.780 388.220 261.780 L 437.958 261.780 437.958 356.283 L 437.958 450.785 250.000 450.785 L 62.042 450.785 62.042 356.283 L 62.042 261.780 115.576 261.780 L 169.110 261.780 169.110 235.733 L 169.110 209.686 84.555 209.686 L 0.000 209.686 0.000 356.152 " stroke="none" fill="#4e6878" fill-rule="evenodd">
        </path>
    </g>
</svg>